<!-- minified with `scour --strip-xml-prolog --create-groups --remove-metadata --remove-descriptive-elements --enable-viewboxing --no-line-breaks --strip-xml-space --enable-id-stripping` -->
<svg version="1.1" class="logo" viewBox="0 0 100 48" xmlns="http://www.w3.org/2000/svg"><g transform="matrix(1.6285 0 0 -1.6285 -.027617 363.12)"><g transform="scale(.1)"><path d="m465.13 2228.4c28.789 0 55.68-8.3807 78.367-22.824v-23.561l18.312-18.312h24.746c15.817-23.384 25.068-51.546 25.068-81.799 0-80.685-65.807-146.49-146.49-146.49-80.686 0-146.5 65.808-146.5 146.49 0 80.688 65.809 146.5 146.5 146.5" fill="#231f20" fill-rule="evenodd"/><path d="m465.13 2228.4c28.789 0 55.68-8.3807 78.367-22.824v-23.561l18.312-18.312h24.746c15.817-23.384 25.068-51.546 25.068-81.799 0-80.685-65.807-146.49-146.49-146.49-80.686 0-146.5 65.808-146.5 146.49 0 80.688 65.809 146.5 146.5 146.5z" stroke="#231f20" stroke-miterlimit="2.6131" stroke-width=".3721"/><path d="m147.72 2228.4c28.789 0 55.68-8.3807 78.367-22.824v-23.561l18.312-18.312h24.746c15.817-23.384 25.068-51.546 25.068-81.799 0-80.685-65.807-146.49-146.49-146.49-80.686 0-146.49 65.808-146.49 146.49 0 80.688 65.808 146.5 146.49 146.5" fill="#f5c600" fill-rule="evenodd"/><path d="m147.72 2228.4c28.789 0 55.68-8.3807 78.367-22.824v-23.561l18.312-18.312h24.746c15.817-23.384 25.068-51.546 25.068-81.799 0-80.685-65.807-146.49-146.49-146.49-80.686 0-146.49 65.808-146.49 146.49 0 80.688 65.808 146.5 146.49 146.5z" fill="none" stroke="#fff200" stroke-miterlimit="2.6131" stroke-width=".3721"/><g fill-rule="evenodd"><path d="m6.3929 1911.3c0 1.7256 0.86939 2.582 2.5948 2.582 1.726 0 2.582-0.8564 2.582-2.582v-12.935h10.353c2.8357 0 5.2838-0.9899 7.3037-2.9831 2.0195-1.9798 3.0362-4.3741 3.0362-7.17v-23.475c0-1.726-0.85582-2.582-2.5819-2.582-1.7252 0-2.5947 0.856-2.5947 2.582v23.275c0 1.4716-0.49527 2.689-1.4846 3.6917-1.004 0.9898-2.2205 1.4851-3.6922 1.4851h-10.34v-28.452c0-1.726-0.85594-2.582-2.582-2.582-1.7254 0-2.5948 0.856-2.5948 2.582v46.563"/><path d="m52.956 1862.1c-2.9023 0-5.3504 1.0034-7.357 2.9965-1.9933 2.006-2.9959 4.4541-2.9959 7.3571 0 1.8726 0.45427 3.6114 1.3774 5.2035 1.9528 3.4238 4.9492 5.1365 8.9754 5.1365h10.341v5.1768c0 1.458-0.49526 2.6881-1.4851 3.6781-1.0033 0.9898-2.2207 1.4851-3.6924 1.4851h-10.34c-1.7254 0-2.5948 0.8695-2.5948 2.5948s0.86943 2.582 2.5948 2.582h10.354c2.8889 0 5.337-1.0033 7.3435-2.9966 1.9926-2.0066 2.9959-4.4547 2.9959-7.3434v-23.288c0-1.726-0.85599-2.582-2.5814-2.582h-12.935zm10.341 15.517h-10.354c-1.4312 0-2.6486-0.508-3.6519-1.5113-1.0167-1.0041-1.512-2.2206-1.512-3.6519 0-1.4178 0.5087-2.6353 1.5254-3.652 1.0169-1.0166 2.2341-1.5247 3.6384-1.5247h10.354v10.34"/><path d="m83.989 1888v-15.503c0-1.4178 0.50801-2.6353 1.5249-3.652 1.0167-1.0166 2.2339-1.5247 3.6519-1.5247h7.7587c1.7118 0 2.5812-0.856 2.5812-2.582 0-1.7247-0.86942-2.5949-2.5812-2.5949h-7.7721c-2.8896 0-5.337 1.0034-7.3435 2.9965-1.9933 2.006-2.9966 4.4541-2.9966 7.3436v15.53c0 2.8887 1.0033 5.3368 2.9966 7.3434 2.0066 1.9933 4.4539 2.9966 7.3435 2.9966h7.7721c1.7118 0 2.5812-0.8567 2.5812-2.582s-0.86942-2.5948-2.5812-2.5948h-7.7587c-1.4448 0-2.662-0.5088-3.6648-1.5121-1.004-1.0025-1.512-2.2199-1.512-3.6647"/><path d="m115.02 1878.9v-14.232c0-1.726-0.85581-2.582-2.5819-2.582-1.7252 0-2.5947 0.856-2.5947 2.582v46.563c0 1.7256 0.86942 2.582 2.5947 2.582 1.7261 0 2.5819-0.8564 2.5819-2.582v-25.83l16.534 12.386c0.44135 0.3344 0.96298 0.5088 1.5645 0.5088 1.7254 0 2.5948-0.8567 2.5948-2.582 0-0.8963-0.34729-1.578-1.0296-2.0868l-10.046-7.517 10.781-20.225c0.20069-0.3478 0.29423-0.7488 0.29423-1.2173 0-0.7092-0.25444-1.3114-0.76245-1.8195-0.50802-0.5088-1.1239-0.7625-1.8324-0.7625-1.016 0-1.7792 0.455-2.2738 1.3782l-10.38 19.462-5.444-4.0259"/><path d="m158.99 1893.2c-2.1399 0-3.9723-0.7631-5.4843-2.2745-1.5113-1.5107-2.2738-3.3437-2.2738-5.4836v-2.5819h15.517v2.5819c0 2.1399-0.76245 3.9729-2.2738 5.4836-1.5122 1.5114-3.3444 2.2745-5.485 2.2745zm-7.758-15.517v-5.1632c0-1.4178 0.50801-2.6353 1.5247-3.652 1.0169-1.0166 2.2341-1.5247 3.652-1.5247h12.935c1.7261 0 2.5821-0.856 2.5821-2.582 0-1.7247-0.85599-2.5949-2.5821-2.5949h-12.935c-2.903 0-5.3504 1.0034-7.3571 2.9965-1.9931 2.006-2.9964 4.4541-2.9964 7.3436v12.935c0 3.5847 1.2577 6.6344 3.7859 9.1489 2.5146 2.5283 5.5642 3.786 9.1489 3.786 3.6384 0 6.7022-1.2444 9.1901-3.7455 2.5011-2.4879 3.7454-5.5516 3.7454-9.1894v-7.7587h-20.693"/><path d="m182.27 1895.8c0 1.7253 0.85445 2.582 2.5806 2.582h15.53c1.7261 0 2.5823-0.8567 2.5823-2.582v-5.1767c0-1.7256-0.85617-2.5813-2.5823-2.5813-1.7244 0-2.5943 0.8557-2.5943 2.5813v2.5819h-10.341v-28.452c0-1.726-0.85617-2.582-2.5806-2.582-1.7261 0-2.5943 0.856-2.5943 2.582v31.046"/><path d="m233.99 1871.2c0 1.6453-0.73386 2.8095-2.2067 3.5173l-13.27 6.4082c-3.4763 1.6715-5.2162 4.4002-5.2162 8.186 0 2.983 1.23 5.2838 3.6796 6.9021 2.1258 1.4043 4.7614 2.1137 7.9174 2.1137 3.8398 0 7.2783-0.9495 10.3-2.8627 0.92335-0.5752 1.3781-1.3242 1.3781-2.2737 0-0.6958-0.25323-1.3115-0.76314-1.8196-0.50819-0.5081-1.1232-0.7623-1.8191-0.7623-0.46684 0-0.882 0.1068-1.2162 0.3074-2.4875 1.4851-5.1094 2.2341-7.8795 2.2341-4.2791 0-6.4204-1.2838-6.4204-3.839 0-1.6183 0.70974-2.7691 2.1137-3.4513l13.402-6.4607c3.4522-1.6722 5.1783-4.4008 5.1783-8.1868 0-3.1431-1.2455-5.4836-3.7192-7.0622-2.1275-1.3242-4.8562-1.9932-8.1999-1.9932-4.963 0-9.1353 0.9502-12.507 2.8626-0.96296 0.5485-1.4453 1.3242-1.4453 2.3143 0 0.6957 0.25495 1.3108 0.76313 1.8194 0.5082 0.5081 1.1232 0.7618 1.8191 0.7618 0.34798 0 0.6684-0.066 0.98881-0.2005 0.83033-0.3607 2.0603-0.8425 3.6796-1.4441 2.3532-0.6291 4.6408-0.9366 6.8614-0.9366 4.3876 0 6.5806 1.2839 6.5806 3.8658"/><path d="m249.51 1895.8c0 1.7253 0.85617 2.582 2.5806 2.582h12.935c2.9027 0 5.3506-1.0033 7.3575-2.9966 1.9931-2.0066 2.9957-4.4547 2.9957-7.3434v-15.53c0-2.8626-1.0026-5.3107-2.9957-7.3165-2.0069-2.0202-4.4548-3.0236-7.3437-3.0236h-10.353v-12.935c0-1.7248-0.85616-2.5807-2.5823-2.5807-1.7244 0-2.5943 0.8559-2.5943 2.5807v46.564zm5.1766-2.5948v-25.857h10.339c1.4453 0 2.6632 0.5081 3.6658 1.5113 1.0026 1.0033 1.5108 2.2206 1.5108 3.6654v15.503c0 1.4716-0.49439 2.7017-1.4849 3.6917-1.0026 0.9898-2.2205 1.4851-3.6916 1.4851h-10.339"/><path d="m296.07 1862.1c-2.9044 0-5.3506 1.0034-7.3575 2.9965-1.9931 2.006-2.9974 4.4541-2.9974 7.3571 0 1.8726 0.45479 3.6114 1.3781 5.2035 1.9535 3.4238 4.9492 5.1365 8.9768 5.1365h10.339v5.1768c0 1.458-0.49613 2.6881-1.4849 3.6781-1.0043 0.9898-2.2205 1.4851-3.6917 1.4851h-10.339c-1.7261 0-2.596 0.8695-2.596 2.5948s0.86993 2.582 2.596 2.582h10.353c2.8889 0 5.3368-1.0033 7.3437-2.9966 1.9931-2.0066 2.9957-4.4547 2.9957-7.3434v-23.288c0-1.726-0.85616-2.582-2.5823-2.582h-12.934zm10.339 15.517h-10.353c-1.4315 0-2.6495-0.508-3.652-1.5113-1.0164-1.0041-1.5108-2.2206-1.5108-3.6519 0-1.4178 0.50646-2.6353 1.5246-3.652 1.0164-1.0166 2.2343-1.5247 3.6383-1.5247h10.353v10.34"/><path d="m327.1 1888v-15.503c0-1.4178 0.50819-2.6353 1.5263-3.652 1.0147-1.0166 2.2326-1.5247 3.6503-1.5247h7.7589c1.7123 0 2.5823-0.856 2.5823-2.582 0-1.7247-0.86995-2.5949-2.5823-2.5949h-7.7727c-2.8889 0-5.3368 1.0034-7.3437 2.9965-1.9931 2.006-2.9957 4.4541-2.9957 7.3436v15.53c0 2.8887 1.0026 5.3368 2.9957 7.3434 2.0069 1.9933 4.4548 2.9966 7.3437 2.9966h7.7727c1.7123 0 2.5823-0.8567 2.5823-2.582s-0.86995-2.5948-2.5823-2.5948h-7.7589c-1.4436 0-2.6615-0.5088-3.6641-1.5121-1.0043-1.0025-1.5125-2.2199-1.5125-3.6647"/><path d="m365.9 1893.2c-2.1395 0-3.9707-0.7631-5.4832-2.2745-1.5108-1.5107-2.2739-3.3437-2.2739-5.4836v-2.5819h15.516v2.5819c0 2.1399-0.76141 3.9729-2.2739 5.4836-1.5108 1.5114-3.3437 2.2745-5.485 2.2745zm-7.7571-15.517v-5.1632c0-1.4178 0.50819-2.6353 1.5246-3.652 1.0164-1.0166 2.2343-1.5247 3.652-1.5247h12.935c1.7261 0 2.5806-0.856 2.5806-2.582 0-1.7247-0.85444-2.5949-2.5806-2.5949h-12.935c-2.9027 0-5.3506 1.0034-7.3575 2.9965-1.9931 2.006-2.9957 4.4541-2.9957 7.3436v12.935c0 3.5847 1.2576 6.6344 3.7847 9.1489 2.5151 2.5283 5.5659 3.786 9.149 3.786 3.64 0 6.7029-1.2444 9.1904-3.7455 2.5013-2.4879 3.7451-5.5516 3.7451-9.1894v-7.7587h-20.693"/><path d="m425.38 1878.9v-14.232c0-1.726-0.85616-2.582-2.5806-2.582-1.7261 0-2.5943 0.856-2.5943 2.582v46.563c0 1.7256 0.86821 2.582 2.5943 2.582 1.7244 0 2.5806-0.8564 2.5806-2.582v-25.83l16.534 12.386c0.44101 0.3344 0.96297 0.5088 1.5659 0.5088 1.7244 0 2.5943-0.8567 2.5943-2.582 0-0.8963-0.34797-1.578-1.0301-2.0868l-10.047-7.517 10.782-20.225c0.19983-0.3478 0.29457-0.7488 0.29457-1.2173 0-0.7092-0.25496-1.3114-0.76313-1.8195-0.50819-0.5088-1.1232-0.7625-1.8312-0.7625-1.0181 0-1.7795 0.455-2.2739 1.3782l-10.381 19.462-5.4453-4.0259"/><path d="m466.77 1862.1c-2.9027 0-5.3506 1.0034-7.3558 2.9965-1.9948 2.006-2.9974 4.4541-2.9974 7.3571 0 1.8726 0.45478 3.6114 1.3781 5.2035 1.9535 3.4238 4.9492 5.1365 8.9751 5.1365h10.341v5.1768c0 1.458-0.49614 2.6881-1.4867 3.6781-1.0026 0.9898-2.2188 1.4851-3.6917 1.4851h-10.339c-1.7261 0-2.5943 0.8695-2.5943 2.5948s0.86823 2.582 2.5943 2.582h10.353c2.8889 0 5.3368-1.0033 7.3437-2.9966 1.9931-2.0066 2.9974-4.4547 2.9974-7.3434v-23.288c0-1.726-0.85789-2.582-2.5823-2.582h-12.935zm10.341 15.517h-10.355c-1.4298 0-2.6477-0.508-3.6503-1.5113-1.0181-1.0041-1.5125-2.2206-1.5125-3.6519 0-1.4178 0.50819-2.6353 1.5246-3.652 1.0181-1.0166 2.2343-1.5247 3.6383-1.5247h10.355v10.34"/><path d="m513.32 1871.2c0 1.6453-0.73558 2.8095-2.2067 3.5173l-13.27 6.4082c-3.478 1.6715-5.2162 4.4002-5.2162 8.186 0 2.983 1.23 5.2838 3.6779 6.9021 2.1275 1.4043 4.7614 2.1137 7.9191 2.1137 3.8398 0 7.2765-0.9495 10.3-2.8627 0.92336-0.5752 1.3781-1.3242 1.3781-2.2737 0-0.6958-0.25495-1.3115-0.76314-1.8196s-1.1232-0.7623-1.8191-0.7623c-0.46856 0-0.882 0.1068-1.2179 0.3074-2.4875 1.4851-5.1094 2.2341-7.8777 2.2341-4.2808 0-6.4204-1.2838-6.4204-3.839 0-1.6183 0.70801-2.7691 2.1137-3.4513l13.402-6.4607c3.4522-1.6722 5.1766-4.4008 5.1766-8.1868 0-3.1431-1.2438-5.4836-3.7175-7.0622-2.1275-1.3242-4.8562-1.9932-8.2016-1.9932-4.9613 0-9.1353 0.9502-12.507 2.8626-0.96296 0.5485-1.4436 1.3242-1.4436 2.3143 0 0.6957 0.25323 1.3108 0.76141 1.8194 0.50992 0.5081 1.1249 0.7618 1.8191 0.7618 0.34798 0 0.67012-0.066 0.99053-0.2005 0.82861-0.3607 2.0603-0.8425 3.6779-1.4441 2.3549-0.6291 4.6426-0.9366 6.8631-0.9366 4.3876 0 6.5806 1.2839 6.5806 3.8658"/><path d="m549.53 1871.2c0 1.6453-0.73558 2.8095-2.2067 3.5173l-13.27 6.4082c-3.4781 1.6715-5.2162 4.4002-5.2162 8.186 0 2.983 1.23 5.2838 3.6779 6.9021 2.1258 1.4043 4.7614 2.1137 7.9191 2.1137 3.8381 0 7.2765-0.9495 10.298-2.8627 0.92334-0.5752 1.3781-1.3242 1.3781-2.2737 0-0.6958-0.25323-1.3115-0.76142-1.8196-0.50818-0.5081-1.1232-0.7623-1.8191-0.7623-0.46856 0-0.882 0.1068-1.2179 0.3074-2.4875 1.4851-5.1094 2.2341-7.8777 2.2341-4.2808 0-6.4221-1.2838-6.4221-3.839 0-1.6183 0.70974-2.7691 2.1137-3.4513l13.404-6.4607c3.4505-1.6722 5.1766-4.4008 5.1766-8.1868 0-3.1431-1.2455-5.4836-3.7175-7.0622-2.1275-1.3242-4.8562-1.9932-8.2016-1.9932-4.9613 0-9.1353 0.9502-12.507 2.8626-0.96296 0.5485-1.4436 1.3242-1.4436 2.3143 0 0.6957 0.25323 1.3108 0.76141 1.8194 0.50819 0.5081 1.1232 0.7618 1.8191 0.7618 0.34798 0 0.66839-0.066 0.99052-0.2005 0.82861-0.3607 2.0603-0.8425 3.6779-1.4441 2.3549-0.6291 4.6426-0.9366 6.8614-0.9366 4.3876 0 6.5823 1.2839 6.5823 3.8658"/><path d="m577.98 1893.2c-2.1413 0-3.9725-0.7631-5.485-2.2745-1.5108-1.5107-2.2739-3.3437-2.2739-5.4836v-2.5819h15.518v2.5819c0 2.1399-0.76314 3.9729-2.2739 5.4836-1.5125 1.5114-3.3454 2.2745-5.485 2.2745zm-7.7589-15.517v-5.1632c0-1.4178 0.50819-2.6353 1.5246-3.652 1.0181-1.0166 2.2343-1.5247 3.6521-1.5247h12.935c1.7261 0 2.5823-0.856 2.5823-2.582 0-1.7247-0.85616-2.5949-2.5823-2.5949h-12.935c-2.9027 0-5.3506 1.0034-7.3558 2.9965-1.9931 2.006-2.9974 4.4541-2.9974 7.3436v12.935c0 3.5847 1.2575 6.6344 3.7847 9.1489 2.5168 2.5283 5.5659 3.786 9.1508 3.786 3.6383 0 6.7012-1.2444 9.1887-3.7455 2.5013-2.4879 3.7468-5.5516 3.7468-9.1894v-7.7587h-20.694"/><path d="m601.27 1911.3c0 1.7256 0.87167 2.582 2.5961 2.582 1.7261 0 2.5823-0.8564 2.5823-2.582v-41.387c0-1.3371 0.85616-2.1932 2.5805-2.5812 1.7261-0.4017 2.5823-1.2577 2.5823-2.5949 0-1.726-0.85615-2.582-2.5823-2.582-2.3273 0-4.1998 0.6823-5.6176 2.0607-1.4315 1.3638-2.1413 3.2635-2.1413 5.6974v41.387"/><path d="m49.108 2111.7h5.9277v11.884c0 6.634 2.3034 12.284 6.9404 16.862 4.6067 4.5754 10.228 6.8787 16.8 6.8787h5.958c3.9621 0 5.9277-1.9657 5.9277-5.9278 0-3.9604-1.9656-5.957-5.9277-5.957h-5.927c-3.3175 0-6.112-1.168-8.4156-3.4711-2.3034-2.3032-3.4701-5.0974-3.4701-8.3843v-11.884h17.813c3.9621 0 5.9277-1.9674 5.9277-5.9278 0-3.9621-1.9656-5.9587-5.9277-5.9587h-17.813v-65.323c0-3.9622-1.9656-5.9277-5.9277-5.9277s-5.958 1.9655-5.958 5.9277v65.323h-5.9277c-3.9614 0-5.958 1.9966-5.958 5.9587 0 3.9604 1.9966 5.9278 5.958 5.9278"/><path d="m114.43 2141.4c0 3.9621 1.9966 5.9278 5.958 5.9278 3.9614 0 5.9277-1.9657 5.9277-5.9278v-95.022c0-3.0715 1.9656-5.0371 5.927-5.9276 3.9621-0.9217 5.9277-2.8873 5.9277-5.957 0-3.9622-1.9656-5.9277-5.9277-5.9277-5.3435 0-9.6435 1.5658-12.898 4.7287-3.2865 3.1336-4.9142 7.4936-4.9142 13.084v95.022"/><path d="m161.91 2105.8c0 3.9604 1.9966 5.9278 5.958 5.9278 3.9621 0 5.9272-1.9674 5.9272-5.9278v-71.282c0-3.9622-1.965-5.9277-5.9272-5.9277-3.9614 0-5.958 1.9655-5.958 5.9277v71.282zm0 29.668v5.957c0 3.9621 1.9966 5.9278 5.958 5.9278 3.9621 0 5.9272-1.9657 5.9272-5.9278v-5.957c0-3.9621-1.965-5.9276-5.9272-5.9276-3.9614 0-5.958 1.9655-5.958 5.9276"/><path d="m197.54 2105.8c0 3.9604 1.9673 5.9278 5.9277 5.9278h29.699c6.665 0 12.284-2.3033 16.891-6.8804 4.5771-4.6065 6.8803-10.227 6.8803-16.86v-35.657c0-6.572-2.3032-12.193-6.8803-16.799-4.6064-4.6375-10.226-6.9407-16.86-6.9407h-23.771v-29.698c0-3.9622-1.9656-5.9278-5.9277-5.9278-3.9621 0-5.9587 1.9656-5.9587 5.9278v106.91zm11.886-5.9587v-59.366h23.74c3.3161 0 6.112 1.1679 8.4152 3.4711 2.3032 2.3032 3.4712 5.0973 3.4712 8.4152v35.595c0 3.3782-1.137 6.2035-3.4092 8.4756-2.3032 2.2739-5.0991 3.4091-8.4772 3.4091h-23.74"/></g><g fill="#f5c600" fill-rule="evenodd"><path d="m364.73 2086.1c0 4.2997 1.0439 8.2912 3.1628 11.947 4.4841 7.8623 11.364 11.793 20.608 11.793h23.74v29.699c0 3.9621 1.9983 5.9277 5.9587 5.9277 3.9621 0 5.9277-1.9656 5.9277-5.9277v-106.91c0-3.9621-1.9656-5.9277-5.9277-5.9277h-29.699c-6.6633 0-12.284 2.3033-16.892 6.8787-4.5754 4.6081-6.8786 10.228-6.8786 16.861v35.657zm23.771 11.854c-3.3161 0-6.112-1.1664-8.4152-3.4695-2.3032-2.3033-3.4694-5.0991-3.4694-8.4152v-35.595c0-3.2559 1.1662-6.05 3.5005-8.3841 2.3342-2.3342 5.1284-3.5023 8.3842-3.5023h23.74v59.366h-23.74"/><path d="m447.86 2056.4v23.74c0 8.2311 2.8872 15.234 8.6926 21.008 5.7726 5.8037 12.775 8.6908 21.006 8.6908 8.3532 0 15.387-2.8562 21.099-8.5994 5.7434-5.7125 8.5995-12.746 8.5995-21.099v-23.74c0-8.231-2.8872-15.234-8.6926-21.008-5.7726-5.8036-12.775-8.6909-21.006-8.6909-8.2309 0-15.234 2.8873-21.006 8.6909-5.8054 5.7744-8.6926 12.777-8.6926 21.008zm47.513 0v23.74c0 4.9148-1.752 9.1216-5.2214 12.593-3.4712 3.4695-7.6779 5.2198-12.593 5.2198-4.913 0-9.1215-1.7503-12.591-5.2198-3.4712-3.4711-5.2214-7.6779-5.2214-12.593v-23.74c0-4.9751 1.7192-9.1836 5.1594-12.653 3.4694-3.4403 7.6779-5.1612 12.653-5.1612 4.9148 0 9.1215 1.7503 12.593 5.2215 3.4694 3.4711 5.2214 7.6779 5.2214 12.593"/><path d="m542.89 2097.9h-5.9277c-3.9621 0-5.9587 1.9965-5.9587 5.9586 0 3.9622 1.9966 5.9277 5.9587 5.9277h5.9277v29.699c0 3.9621 1.9966 5.9277 5.9587 5.9277 3.9604 0 5.926-1.9656 5.926-5.9277v-29.699h17.814c3.9604 0 5.926-1.9655 5.926-5.9277 0-3.9621-1.9656-5.9586-5.926-5.9586h-17.814v-65.324c0-3.9621-1.9656-5.9277-5.926-5.9277-3.9621 0-5.9587 1.9656-5.9587 5.9277v65.324"/></g></g></g></svg>
