<?xml version="1.0" encoding="UTF-8"?>
<svg version="1.1" viewBox="0 0 47.774 47.774" xmlns="http://www.w3.org/2000/svg"><g transform="matrix(1.6285 0 0 -1.6285 -.16995 362.92)"><g transform="scale(.1)"><path d="m147.72 2228.4c28.789 0 55.68-8.3807 78.367-22.824v-23.561l18.312-18.312h24.746c15.817-23.384 25.068-51.546 25.068-81.799 0-80.685-65.807-146.49-146.49-146.49-80.686 0-146.49 65.808-146.49 146.49 0 80.688 65.808 146.5 146.49 146.5" fill="#f5c600" fill-rule="evenodd"/><path d="m147.72 2228.4c28.789 0 55.68-8.3807 78.367-22.824v-23.561l18.312-18.312h24.746c15.817-23.384 25.068-51.546 25.068-81.799 0-80.685-65.807-146.49-146.49-146.49-80.686 0-146.49 65.808-146.49 146.49 0 80.688 65.808 146.5 146.49 146.5z" fill="none" stroke="#fff200" stroke-miterlimit="2.6131" stroke-width=".3721"/><path d="m88.515 2110.4h5.9277v11.884c0 6.634 2.3034 12.284 6.9404 16.862 4.6068 4.5754 10.228 6.8787 16.8 6.8787h5.958c3.9621 0 5.9277-1.9657 5.9277-5.9278 0-3.9604-1.9656-5.957-5.9277-5.957h-5.927c-3.3175 0-6.112-1.168-8.4156-3.4711-2.3034-2.3032-3.4701-5.0974-3.4701-8.3843v-11.884h17.813c3.9621 0 5.9277-1.9674 5.9277-5.9278 0-3.9621-1.9656-5.9587-5.9277-5.9587h-17.813v-65.323c0-3.9622-1.9656-5.9277-5.9277-5.9277s-5.958 1.9655-5.958 5.9277v65.323h-5.9277c-3.9614 0-5.958 1.9966-5.958 5.9587 0 3.9604 1.9966 5.9278 5.958 5.9278" fill-rule="evenodd"/><path d="m146.23 2086.1c0 4.2997 1.0439 8.2912 3.1628 11.947 4.4841 7.8623 11.364 11.793 20.608 11.793h23.74v29.699c0 3.9621 1.9983 5.9277 5.9587 5.9277 3.9621 0 5.9277-1.9656 5.9277-5.9277v-106.91c0-3.9621-1.9656-5.9277-5.9277-5.9277h-29.699c-6.6633 0-12.284 2.3033-16.892 6.8787-4.5754 4.6081-6.8786 10.228-6.8786 16.861v35.657zm23.771 11.854c-3.3161 0-6.112-1.1664-8.4152-3.4695-2.3032-2.3033-3.4694-5.0991-3.4694-8.4152v-35.595c0-3.2559 1.1662-6.05 3.5005-8.3841 2.3342-2.3342 5.1284-3.5023 8.3842-3.5023h23.74v59.366h-23.74" fill-rule="evenodd"/></g></g></svg>
